<?xml version="1.0" standalone="no"?>
<!DOCTYPE svg PUBLIC "-//W3C//DTD SVG 1.1//EN" "http://www.w3.org/Graphics/SVG/1.1/DTD/svg11.dtd" >
<svg xmlns="http://www.w3.org/2000/svg" xmlns:svg="http://www.w3.org/2000/svg" xmlns:xlink="http://www.w3.org/1999/xlink" viewBox="0 0 512 512"><path d="M297.97 318.54Q294.06 340.83 299.27 364.82Q296.72 368.19 314.34 376.08Q312.74 398.66 323.11 438.97Q290.91 447.57 265.75 448.03Q260.19 466.6 267.75 469.75Q266.5 479.24 278.23 482.61Q306.82 473.11 345.3 458.07Q401.96 468.37 452.07 461.2Q472.38 461.77 465.63 438.87Q417.18 438.81 378.91 447.61Q379.36 441.21 374.97 431.59Q377.69 418.13 391.28 404.19Q389.57 386.11 395.48 383.72Q377.56 369.72 367.86 362.64Q367.94 341.34 397.21 341.39Q398.1 318.34 384.17 314.23Q357.45 307.77 326.84 309.09Q321.41 315.31 309.42 319.14Q315.12 316.74 314.69 308.19Q298.45 294.09 290.25 311.42ZM377.88 376.69Q368.5 386.04 379.94 409.61Q363.63 427.39 350.33 449.9Q327.03 421.7 328.14 407.22Q323.14 399.03 328.13 386.5Q352.43 379.92 371.22 379.43ZM367.12 331.17Q371.54 332.47 372.74 335.34Q365.3 343.7 349.14 356.93Q332.39 360.96 314.01 357.36Q306.67 344.05 311.57 345.23Q327.67 328.97 334.98 330.76Q350.76 322.93 361.38 327.17ZM281.98 272.22Q277.68 269.51 290.7 286.5Q305.54 285.54 327.64 290.34Q358.63 280.6 387.05 274.53V259.25Q328.16 266.56 281.88 266.76ZM87.05 464.1Q93.04 466.75 98.44 441Q100.9 384.98 95.54 338.05Q120.22 340.55 169.55 337.07Q154.12 353.75 139 367.19Q129.16 367.37 115.36 357.97Q98.65 370.58 101.93 391.97Q110.7 389.28 114.89 383.16Q136.51 373.14 173.79 359.95Q183.79 400.24 168.97 432.98L153.93 442.5Q148.09 444.99 132.66 438.54Q140.28 454.63 143.34 461.9Q149.47 454.08 173.48 459.27Q180.01 451.64 195.24 426.23Q200.94 389.98 186.68 361.19Q178.63 326.18 166.54 297.28Q163.56 279.66 145.36 267.18Q123.14 263.96 94.17 271.12Q93.04 261.06 97.48 258.56Q86.18 252.63 82.34 248.7Q71.37 355.23 78.66 465.98ZM138.06 282.82Q143.24 287.08 157.42 312.84Q151.56 317.06 148.15 311.33Q127.03 328.45 105.35 324.5Q98.76 316.68 103.1 291.09Q104.15 282.84 134.74 284.63ZM39.9 104.64Q37.48 118.04 56.34 147.8Q42.84 164.83 43.28 187.36Q29.22 192.58 16.78 209.7Q27.18 236.58 31.94 274.32Q27.56 274.27 37.97 273.06Q46.31 237.04 43.3 206.03Q80.94 210.99 128.68 205.85Q155.97 199.46 209.87 202.63Q203.98 206.59 213.97 216.2Q190.27 242.5 172.22 262.38Q208.61 241.36 230.01 216.74Q227 213.2 227.33 200.12Q216.79 187.76 223.2 196.38Q179.76 176.61 138.93 183.23Q127.1 160.25 141.11 153.01Q166.82 156.15 163.98 130.22Q165.73 135.19 151.2 128.36Q138.29 135.42 118.45 139.78Q108.21 138.24 121.44 142.36Q128.44 163.4 105.01 191.39Q76.72 180.84 63.15 176.07Q73.89 147.99 61.26 98.36Q105.15 100.83 152.45 89.64Q168.54 100.25 180.95 92.44Q180.54 111.78 186.1 111.99Q192.99 135.45 175.41 146.49Q171.35 170.32 172.15 168.17Q178.05 159.06 203.21 132.21Q203.87 125.79 212.15 105.5Q204.55 98.71 200.46 87.29Q183.81 84.41 179.82 75.24Q115.83 65.8 63.09 87.79Q52.05 77.83 33.35 72.4Q31.81 71.61 40.54 100.9ZM275.09 26.95Q289.62 60.96 295.38 100.09Q289.34 120.97 265.09 106.83Q258.8 103.32 253.95 97.14Q246.32 117.94 245.83 148.98Q259.01 171.05 276.23 201.24Q277.44 184.12 293.71 182.32H305.72Q300.58 196.46 303.69 195.54Q304.14 213.45 297.5 205.76Q292.05 217.24 276.89 201.32Q266.57 217.93 271.15 220.62Q328.19 224 361.74 212.62Q372.07 232.52 372.24 229.52Q408.4 206.18 407.64 178.11Q420.55 148.9 410.89 128.29Q396.87 109.66 389.62 115.81H368.54Q353.05 68.07 338.46 31.06Q323.85 42.23 324.63 45.99Q337.89 68.06 342.95 103.22Q329.86 101.83 326.37 113.79Q310.77 55.82 297.5 19.14Q286.6 12.31 287.47 13.13ZM340.2 172.26Q348 188.33 346.99 213.01Q335.97 214.85 328.74 205.55Q318.21 199.4 323.4 179.39Q317.36 170.98 338.87 181.69ZM300.88 119.19Q303.73 141.9 301.93 144.9Q305.64 157.55 294.81 155.92H281.53Q276.68 145.37 282.36 134.99Q292.16 119.24 301.04 121.65ZM391.77 125.1Q389.45 133.32 396.66 148.06Q392.51 157.73 399.99 171.31Q389.43 191.82 392.04 194.9Q373.34 199.01 360.74 206.54Q347.2 197.12 354.99 183.08Q352.51 183.11 369.64 173.01Q353.53 149.75 367.19 127.26Q379.45 111.52 385.47 125.14ZM334.53 115.6Q341.33 136.01 351.03 147.43Q342.39 165.73 333.13 165.43Q324.67 153.65 322.17 135.65Q318.52 122.31 332.19 125.42Z" fill="black"></path></svg>