<?xml version="1.0" standalone="no"?>
<!DOCTYPE svg PUBLIC "-//W3C//DTD SVG 1.1//EN" "http://www.w3.org/Graphics/SVG/1.1/DTD/svg11.dtd" >
<svg xmlns="http://www.w3.org/2000/svg" xmlns:svg="http://www.w3.org/2000/svg" xmlns:xlink="http://www.w3.org/1999/xlink" viewBox="0 0 512 512"><path d="M305.5 329.0Q304.5 351.0 307.5 375.0Q308.5 386.0 319.5 386.0Q321.5 418.0 329.5 456.0Q308.5 465.0 279.5 466.0Q273.5 472.0 275.5 482.0Q280.5 486.0 287.5 489.0Q322.5 483.0 358.5 477.0Q412.5 475.0 469.5 474.0Q479.5 466.0 479.5 454.0Q435.5 452.0 390.5 456.0Q384.5 453.0 385.5 446.0Q397.5 429.0 407.5 415.0Q407.5 405.0 407.5 396.0Q395.5 389.0 387.5 380.0Q387.5 359.0 403.5 348.0Q402.5 331.0 390.5 323.0Q365.5 316.0 340.5 323.0Q333.5 331.0 323.5 335.0Q321.5 326.0 322.5 316.0Q308.5 313.0 305.5 329.0ZM383.5 384.0Q388.5 398.0 390.5 415.0Q378.5 439.0 354.5 456.0Q343.5 439.0 339.5 419.0Q338.5 406.0 340.5 394.0Q362.5 384.0 383.5 384.0ZM376.5 338.0Q386.5 342.0 383.5 353.0Q372.5 363.0 360.5 370.0Q346.5 369.0 329.5 371.0Q324.5 364.0 326.5 354.0Q332.5 346.0 341.5 338.0Q358.5 335.0 376.5 338.0ZM297.5 282.0Q294.5 285.0 295.5 291.0Q318.5 298.0 346.5 298.0Q369.5 291.0 394.5 286.0V273.0Q344.5 275.0 297.5 282.0ZM92.5 474.0Q100.5 471.0 107.5 461.0Q109.5 399.0 108.5 343.0Q137.5 353.0 178.5 353.0Q169.5 369.0 149.5 377.0Q137.5 380.0 127.5 375.0Q115.5 381.0 117.5 396.0Q122.5 403.0 132.5 401.0Q153.5 387.0 180.5 377.0Q190.5 412.0 181.5 448.0L173.5 457.0Q160.5 462.0 149.5 454.0Q146.5 464.0 157.5 474.0Q167.5 472.0 178.5 470.0Q197.5 457.0 204.5 437.0Q205.5 402.0 202.5 372.0Q194.5 335.0 182.5 304.0Q173.5 292.0 157.5 282.0Q131.5 276.0 108.5 284.0Q103.5 273.0 101.5 263.0Q97.5 264.0 91.5 263.0Q83.5 366.0 92.5 474.0ZM142.5 296.0Q160.5 303.0 169.5 320.0Q168.5 326.0 165.5 331.0Q135.5 333.0 109.5 340.0Q105.5 322.0 108.5 305.0Q122.5 293.0 142.5 296.0ZM48.5 110.0Q54.5 136.0 63.5 161.0Q62.5 178.0 61.5 196.0Q45.5 209.0 34.5 226.0Q32.5 254.0 36.5 284.0Q38.5 286.0 43.5 286.0Q54.5 257.0 58.5 225.0Q98.5 215.0 133.5 210.0Q175.5 212.0 219.5 217.0Q222.5 222.0 221.5 229.0Q196.5 251.0 178.5 271.0Q214.5 258.0 241.5 228.0Q242.5 221.0 243.5 215.0Q235.5 207.0 227.5 201.0Q187.5 190.0 147.5 194.0Q141.5 176.0 154.5 159.0Q173.5 161.0 178.5 146.0Q173.5 141.0 167.5 139.0Q144.5 142.0 127.5 149.0Q127.5 156.0 134.5 160.0Q132.5 180.0 122.5 196.0Q96.5 200.0 74.5 195.0Q80.5 152.0 76.5 115.0Q118.5 107.0 162.5 102.0Q176.5 106.0 191.5 111.0Q196.5 117.0 199.5 125.0Q197.5 150.0 179.5 166.0Q175.5 175.0 183.5 178.0Q196.5 164.0 209.5 151.0Q217.5 136.0 220.5 121.0Q216.5 110.0 214.5 100.0Q199.5 94.0 185.5 84.0Q124.5 84.0 70.5 93.0Q62.5 83.0 52.5 77.0Q45.5 89.0 48.5 110.0ZM293.5 31.0Q298.5 72.0 307.5 114.0Q298.5 125.0 284.5 125.0Q271.5 115.0 270.5 105.0Q261.5 126.0 257.5 154.0Q272.5 185.0 287.5 215.0Q291.5 202.0 301.5 191.0H314.5Q320.5 201.0 320.5 215.0Q317.5 220.0 313.5 225.0Q297.5 225.0 288.5 218.0Q280.5 229.0 290.5 240.0Q335.5 241.0 378.5 231.0Q379.5 242.0 389.5 243.0Q412.5 220.0 427.5 193.0Q433.5 165.0 425.5 141.0Q411.5 127.0 395.5 120.0H376.5Q364.5 83.0 345.5 46.0Q336.5 49.0 338.5 61.0Q345.5 85.0 349.5 109.0Q345.5 121.0 332.5 120.0Q317.5 71.0 306.5 27.0Q298.5 23.0 293.5 31.0ZM345.5 186.0Q355.5 199.0 354.5 219.0Q345.5 223.0 336.5 225.0Q326.5 211.0 333.5 195.0Q336.5 186.0 345.5 186.0ZM309.5 138.0Q313.5 149.0 316.5 162.0Q314.5 168.0 310.5 175.0H291.5Q281.5 159.0 288.5 143.0Q298.5 139.0 309.5 138.0ZM398.5 140.0Q404.5 147.0 410.5 155.0Q411.5 172.0 410.5 189.0Q407.5 198.0 400.5 206.0Q384.5 213.0 367.5 218.0Q359.5 213.0 364.5 203.0Q369.5 193.0 378.5 190.0Q367.5 166.0 373.5 137.0Q384.5 131.0 398.5 140.0ZM349.5 131.0Q357.5 145.0 356.5 165.0Q352.5 175.0 340.5 175.0Q329.5 162.0 332.0 145.0Q334.5 128.0 349.5 131.0Z" fill="black"></path></svg>